<svg width="30" height="30" viewBox="0 0 30 30" fill="none" xmlns="http://www.w3.org/2000/svg">
<path fill-rule="evenodd" clip-rule="evenodd" d="M15.0002 0.333374C6.89999 0.333374 0.333496 6.89986 0.333496 15C0.333496 23.1002 6.89999 29.6667 15.0002 29.6667C23.1003 29.6667 29.6668 23.1002 29.6668 15C29.6668 6.89986 23.1003 0.333374 15.0002 0.333374ZM8.86691 16.6001C9.45416 16.1597 10.2865 16.2769 10.7294 16.8612L10.7356 16.8691C10.7435 16.8792 10.7586 16.8979 10.7807 16.9242C10.8249 16.9769 10.8965 17.059 10.9941 17.1609C11.1905 17.3659 11.4857 17.6439 11.8678 17.9218C12.6372 18.4814 13.7009 19.0001 15.0002 19.0001C16.2995 19.0001 17.3633 18.4814 18.1327 17.9218C18.5148 17.6439 18.8099 17.3659 19.0063 17.1609C19.104 17.059 19.1756 16.9769 19.2198 16.9242C19.2419 16.8979 19.257 16.8792 19.2649 16.8691L19.2711 16.8612C19.714 16.2769 20.5463 16.1597 21.1336 16.6001C21.7227 17.0419 21.8421 17.8777 21.4002 18.4668L21.2624 18.6385C21.1842 18.7317 21.0736 18.8579 20.9316 19.006C20.6489 19.3011 20.2357 19.6897 19.7011 20.0784C18.6372 20.8522 17.0343 21.6668 15.0002 21.6668C12.9662 21.6668 11.3633 20.8522 10.2993 20.0784C9.76482 19.6897 9.35161 19.3011 9.06884 19.006C8.92691 18.8579 8.81625 18.7317 8.73806 18.6385C8.69084 18.5823 8.64519 18.5249 8.60024 18.4668C8.15841 17.8777 8.2778 17.0419 8.86691 16.6001Z" fill="#635AFF"/>
</svg>
